<svg xmlns="http://www.w3.org/2000/svg" viewBox="0 0 512 512">
  <rect width="512" height="512" rx="120" fill="#00a82d"/>
  <path fill="#ffffff" d="M159 315h198c43 0 78-35 78-78s-35-78-78-78c-12 0-24 3-34 8-24-37-66-61-114-61-72 0-131 55-136 126-38 8-67 42-67 83 0 47 38 85 85 85h68v-85Zm-68 43c-24 0-43-19-43-43 0-22 16-40 38-43l28-4 1-29c2-51 44-92 95-92 37 0 70 21 86 55l11 24 23-13c8-5 17-7 27-7 20 0 37 12 45 29 4 7 6 15 6 24 0 24-19 43-43 43H159c-23 0-42 19-42 42v14H91Z"/>
  <rect x="154" y="274" width="204" height="33" rx="16.5" fill="#ffffff"/>
  <rect x="154" y="334" width="156" height="33" rx="16.5" fill="#ffffff"/>
</svg>
